<?xml version="1.0" encoding="utf-8"?>
<!-- Generator: Adobe Illustrator 21.0.2, SVG Export Plug-In . SVG Version: 6.00 Build 0)  -->
<svg version="1.1" id="Layer_1" xmlns="http://www.w3.org/2000/svg" xmlns:xlink="http://www.w3.org/1999/xlink" x="0px" y="0px"
	 viewBox="0 0 500 166" style="enable-background:new 0 0 500 166;" xml:space="preserve">
<style type="text/css">
	.st0{fill:#7CC242;}
</style>
<g>
	<polygon class="st0" points="100.3,6.5 65.4,41.4 55.9,32 21.2,32 47.9,58.2 4.5,101.5 61,101.5 52.2,92.8 67.3,77.7 78.2,88.6 
		7.3,159.5 63.8,159.5 54.8,150.5 116.3,89 84.9,59.5 137.1,6.5 	"/>
	<g>
		<polygon class="st0" points="176.6,89.3 156.3,58.9 176,58.9 187,76.3 198,58.9 217.2,58.9 196.9,89.1 218.1,120.7 198.4,120.7 
			186.6,102.1 174.7,120.7 155.5,120.7 		"/>
		<rect x="227.1" y="58.9" class="st0" width="17.2" height="61.8"/>
		<path class="st0" d="M260,58.9h29.2c9.4,0,16,2.5,20.1,6.7c3.6,3.5,5.5,8.3,5.5,14.4v0.2c0,9.4-5,15.7-12.7,19l14.7,21.5h-19.8
			L284.7,102h-0.2h-7.3v18.7H260V58.9z M288.5,88.6c5.8,0,9.2-2.8,9.2-7.3v-0.2c0-4.9-3.5-7.3-9.3-7.3h-11.2v14.8H288.5z"/>
		<path class="st0" d="M321,111.5l9.5-11.4c6.1,4.9,12.9,7.4,20,7.4c4.6,0,7.1-1.6,7.1-4.2v-0.2c0-2.6-2-4-10.4-5.9
			c-13.2-3-23.3-6.7-23.3-19.4v-0.2c0-11.5,9.1-19.8,23.9-19.8c10.5,0,18.7,2.8,25.4,8.2l-8.6,12.1c-5.6-4-11.8-6.1-17.3-6.1
			c-4.1,0-6.2,1.8-6.2,4v0.2c0,2.8,2.1,4.1,10.7,6c14.2,3.1,23,7.7,23,19.2v0.2c0,12.6-10,20.1-25,20.1
			C339,121.8,328.6,118.3,321,111.5"/>
		<polygon class="st0" points="401.1,97.6 377.6,58.9 397.1,58.9 409.8,81.4 422.6,58.9 441.7,58.9 418.3,97.3 418.3,120.7 
			401.1,120.7 		"/>
		<path class="st0" d="M441.6,111.5l9.5-11.4c6.1,4.9,12.9,7.4,20,7.4c4.6,0,7.1-1.6,7.1-4.2v-0.2c0-2.6-2-4-10.4-5.9
			c-13.2-3-23.3-6.7-23.3-19.4v-0.2c0-11.5,9.1-19.8,23.9-19.8c10.5,0,18.7,2.8,25.4,8.2l-8.6,12.1c-5.6-4-11.8-6.1-17.3-6.1
			c-4.1,0-6.2,1.8-6.2,4v0.2c0,2.8,2.1,4.1,10.7,6c14.2,3.1,23,7.7,23,19.2v0.2c0,12.6-10,20.1-25,20.1
			C459.6,121.8,449.2,118.3,441.6,111.5"/>
	</g>
</g>
</svg>
